# AST/ASF file generated using VICON BodyLanguage
# -----------------------------------------------
:version 1.10
:name VICON
:units
  mass 1.0
  length 0.45
  angle deg
:documentation
   .ast/.asf automatically generated from VICON data using
   VICON BodyBuilder and BodyLanguage model FoxedUp or BRILLIANT.MOD
:root
   order TX TY TZ RX RY RZ
   axis XYZ
   position 0 0 0  
   orientation 0 0 0 
:bonedata
  begin
     id 1 
     name lhipjoint
     direction 0.528046 -0.759594 0.379717 
     length 2.39752 
     axis 0 0 0  XYZ
  end
  begin
     id 2 
     name lfemur
     direction 0.34202 -0.939693 0  
     length 7.31175  
     axis 0 0 20  XYZ
    dof rx ry rz
    limits (-160.0 20.0)
           (-70.0 70.0)
           (-60.0 70.0)
  end
  begin
     id 3 
     name ltibia
     direction 0.34202 -0.939693 0   
     length 7.52482   
     axis 0 0 20   XYZ
    dof rx
    limits (-10.0 170.0)
  end
  begin
     id 4 
     name lfoot
     direction 0.0675379 -0.185559 0.980309   
     length 2.00961   
     axis -90 7.62852e-016 20   XYZ
    dof rx rz
    limits (-45.0 90.0)
           (-70.0 20.0)
  end
  begin
     id 5 
     name ltoes
     direction 1.5352e-011 -4.22286e-011 1   
     length 1.01383   
     axis -90 7.62852e-016 20   XYZ
    dof rx
    limits (-90.0 20.0)
  end
  begin
     id 6 
     name rhipjoint
     direction -0.510274 -0.769251 0.384544   
     length 2.36742  
     axis 0 0 0  XYZ 
  end
  begin
     id 7 
     name rfemur
     direction -0.34202 -0.939693 0   
     length 7.45325   
     axis 0 0 -20   XYZ
    dof rx ry rz
    limits (-160.0 20.0)
           (-70.0 70.0)
           (-70.0 60.0)
  end
  begin
     id 8 
     name rtibia
     direction -0.34202 -0.939693 0   
     length 7.49587   
     axis 0 0 -20   XYZ
    dof rx
    limits (-10.0 170.0)
 end
 begin
     id 9 
     name rfoot
     direction -0.106475 -0.292536 0.950308   
     length 2.20898  
     axis -90 -7.62852e-016 -20   XYZ
    dof rx rz
    limits (-45.0 90.0)
           (-20.0 70.0)
  end
  begin
     id 10 
     name rtoes
     direction -1.53597e-011 -4.22023e-011 1   
     length 1.10065   
     axis -90 -7.62852e-016 -20   XYZ
    dof rx
    limits (-90.0 20.0)
  end
  begin
     id 11 
     name lowerback
     direction 0.0260024 0.998026 -0.0571652   
     length 2.11214   
     axis 0 0 0   XYZ
    dof rx ry rz
    limits (-20.0 45.0)
           (-30.0 30.0)
           (-30.0 30.0)
  end
  begin
     id 12 
     name upperback
     direction 0.0216202 0.999542 -0.0211766   
     length 2.11689   
     axis 0 0 0   XYZ
    dof rx ry rz
    limits (-20.0 45.0)
           (-30.0 30.0)
           (-30.0 30.0)
  end
  begin
     id 13 
     name thorax
     direction 0.00883312 0.999944 0.00589057   
     length 2.11821   
     axis 0 0 0   XYZ
    dof rx ry rz
    limits (-20.0 45.0)
           (-30.0 30.0)
           (-30.0 30.0)
  end
  begin
     id 14 
     name lowerneck
     direction -0.059386 0.994433 0.0870401   
     length 1.81176   
     axis 0 0 0   XYZ
    dof rx ry rz
    limits (-20.0 45.0)
           (-30.0 30.0)
           (-30.0 30.0)
  end
  begin
     id 15 
     name upperneck
     direction 0.0506457 0.97328 -0.223967   
     length 1.82382   
     axis 0 0 0   XYZ
    dof rx ry rz
    limits (-20.0 45.0)
           (-30.0 30.0)
           (-30.0 30.0)
  end
  begin
     id 16
     name head
     direction 0.0205902 0.996147 -0.0852487  
     length 1.84805  
     axis 0 0 0   XYZ
    dof rx ry rz
    limits (-20.0 45.0)
           (-30.0 30.0)
           (-30.0 30.0)
  end
  begin
     id 17 
     name lclavicle
     direction 0.949493 0.303881 -0.0782325  
     length 3.60584  
     axis 0 0 0   XYZ
    dof ry rz
    limits (-20.0 10.0)
           (0.0 20.0)
  end
  begin
     id 18 
     name lhumerus
     direction 1 -4.48965e-011 1.48782e-027   
     length 4.95681   
     axis 180 -30 -90   XYZ
    dof rx ry rz
    limits (-60.0 90.0)
           (-90.0 90.0)
           (-90.0 90.0)
  end
  begin
     id 19
     name lradius
     direction 1 -4.48952e-011 2.06528e-027   
     length 3.40915   
     axis 180 -30 -90   XYZ
    dof rx
    limits (-10.0 170.0)
  end
  begin
     id 20
     name lwrist
     direction 1 -4.48964e-011 1.28021e-027   
     length 1.70457   
     axis -1.61767e-015 90 90   XYZ
    dof ry
    limits (-180.0 0.0)
 end
  begin
     id 21 
     name lhand
     direction 1 -4.49094e-011 2.54887e-027   
     length 0.616403   
     axis -1.63363e-015 90 90   XYZ
    dof rx rz
    limits (-90.0 90.0)
           (-45.0 45.0)
  end
  begin
     id 22 
     name lfingers
     direction 1 -4.49002e-011 5.11407e-027   
     length 0.49696   
     axis -3.26723e-015 90 90   XYZ
    dof rx
    limits (0.0 90.0)
  end
  begin
     id 23
     name lthumb
     direction 0.707107 -6.34998e-011 0.707107   
     length 0.713539   
     axis -90 45 -2.25915e-014   XYZ
    dof rx rz
    limits (-45.0 45.0)
           (-45.0 45.0)
  end
  begin
     id 24 
     name rclavicle
     direction -0.937751 0.334612 -0.0930482   
     length 3.46287  
     axis 0 0 0   XYZ 
    dof ry rz
    limits (-10.0 20.0)
           (-20.0 0.0)
  end
  begin
     id 25 
     name rhumerus
     direction -1 -4.48962e-011 3.59972e-027  
     length 5.352   
     axis 180 30 90   XYZ
    dof rx ry rz
    limits (-90.0 60.0)
           (-90.0 90.0)
           (-90.0 90.0)
  end
  begin
     id 26 
     name rradius
     direction -1 -4.48987e-011 -3.76925e-027   
     length 3.43721   
     axis 180 30 90   XYZ
    dof rx
    limits (-10.0 170.0)
  end
  begin
     id 27 
     name rwrist
     direction -1 -4.48943e-011 1.28112e-027   
     length 1.7186   
     axis -1.61767e-015 -90 -90   XYZ
    dof ry
    limits (-180.0 0.0)
  end
  begin
     id 28
     name rhand
     direction -1 -4.49027e-011 2.55483e-027   
     length 0.72009   
     axis -1.63363e-015 -90 -90   XYZ
    dof rx rz
    limits (-90.0 90.0)
           (-45.0 45.0)
  end
  begin
     id 29
     name rfingers
     direction -1 -4.48827e-011 5.14506e-027   
     length 0.580555   
     axis -3.26723e-015 -90 -90   XYZ
    dof rx
    limits (0.0 90.0)
  end
  begin
     id 30
     name rthumb
     direction -0.707107 -6.34936e-011 0.707107   
     length 0.833564   
     axis -90 -45 2.25915e-014   XYZ
    dof rx rz
    limits (-45.0 45.0)
           (-45.0 45.0)
  end
:hierarchy
  begin
    root lhipjoint rhipjoint lowerback
    lhipjoint lfemur
    lfemur ltibia
    ltibia lfoot
    lfoot ltoes
    rhipjoint rfemur
    rfemur rtibia
    rtibia rfoot
    rfoot rtoes
    lowerback upperback
    upperback thorax
    thorax lowerneck lclavicle rclavicle
    lowerneck upperneck
    upperneck head
    lclavicle lhumerus
    lhumerus lradius
    lradius lwrist
    lwrist lhand lthumb
    lhand lfingers
    rclavicle rhumerus
    rhumerus rradius
    rradius rwrist
    rwrist rhand rthumb
    rhand rfingers
  end

#!OML:ASF H:\Terrain\Patient Classification 1\Terrain2\Thursday\justin.ASF
:FULLY-SPECIFIED
:DEGREES
1
root -12.5921 17.5437 8.5325 3.98082 -2.48497 -3.68368
lowerback 1.95699 0.766944 2.44143
upperback 4.8055 0.914198 3.07801
thorax 3.84424 0.479413 1.82138
lowerneck -7.91124 1.03726 -9.61254
upperneck 45.1678 2.95281 3.1523
head 18.0559 0.00186729 3.74264
rclavicle -7.7526e-015 -1.35174e-014
rhumerus -57.1235 17.4553 -85.7297
rradius 94.769
rwrist -27.3913
rhand -13.3724 11.4248
rfingers 7.12502
rthumb 12.7342 -18.1669
lclavicle -7.7526e-015 -1.35174e-014
lhumerus -55.7857 -17.6061 95.3839
lradius 88.2963
lwrist 21.986
lhand -8.4755 20.1921
lfingers 7.12502
lthumb 17.4513 49.4287
rfemur -11.2658 -1.18088 26.3341
rtibia 31.8635
rfoot -21.4574 -2.18975
rtoes 1.2946
lfemur -11.4069 2.16715 -15.4548
ltibia 29.6556
lfoot -18.7766 -4.08803
ltoes -5.73888
2
root -12.5892 17.5541 8.53844 3.86124 -2.42298 -3.4581
lowerback 1.99563 0.733787 2.25171
upperback 4.84319 0.873568 3.00145
thorax 3.85975 0.453988 1.8477
lowerneck -7.84667 0.996927 -9.2081
upperneck 44.9827 2.95994 2.69236
head 17.9465 0.0231915 3.44177
rclavicle -1.09332e-014 -2.3059e-014
rhumerus -57.0485 17.7839 -85.9279
rradius 94.9588
rwrist -26.9626
rhand -13.447 12.351
rfingers 7.12502
rthumb 12.6623 -17.2452
lclavicle -1.09332e-014 -2.3059e-014
lhumerus -55.8085 -17.7018 95.4935
lradius 88.2831
lwrist 21.8458
lhand -8.48726 19.8969
lfingers 7.12502
lthumb 17.4399 49.1345
rfemur -11.0063 -1.36074 26.0591
rtibia 31.5977
rfoot -21.3493 -2.1546
rtoes 0.836977
lfemur -11.3441 2.35669 -15.7232
ltibia 29.8669
lfoot -18.9862 -4.03539
ltoes -8.30336
3
root -12.584 17.5631 8.54427 3.83176 -2.35778 -3.38519
lowerback 1.94789 0.696763 2.2734
upperback 4.82999 0.823859 2.95995
thorax 3.87454 0.430921 1.79248
lowerneck -7.82251 0.986698 -9.00962
upperneck 44.8715 2.99158 2.43602
head 17.8815 0.0417073 3.28414
rclavicle 7.15625e-015 -3.18055e-015
rhumerus -57.0918 18.1071 -86.1428
rradius 95.2066
rwrist -26.892
rhand -13.1304 12.9079
rfingers 7.12502
rthumb 12.9675 -16.6691
lclavicle 7.15625e-015 -3.18055e-015
lhumerus -55.7818 -17.8056 95.6219
lradius 88.1675
lwrist 21.8478
lhand -8.33564 19.863
lfingers 7.12502
lthumb 17.5859 49.0876
rfemur -10.8985 -1.62248 25.9269
rtibia 31.4654
rfoot -21.4381 -1.89861
rtoes 1.75881
lfemur -11.3242 2.47802 -15.8183
ltibia 30.0115
lfoot -19.0075 -4.2287
ltoes -8.44319
4
root -12.5818 17.5609 8.54536 3.92547 -2.34855 -3.58497
lowerback 1.88732 0.701746 2.5255
upperback 4.73702 0.828675 3.00595
thorax 3.81554 0.441159 1.69849
lowerneck -7.82304 0.940927 -9.02356
upperneck 44.7252 2.93111 2.40343
head 17.7981 0.0176404 3.25573
rclavicle -6.95746e-015 -2.14687e-014
rhumerus -57.1736 18.4122 -86.3698
rradius 95.3604
rwrist -26.9399
rhand -12.7789 13.041
rfingers 7.12502
rthumb 13.3063 -16.5142
lclavicle -6.95746e-015 -2.14687e-014
lhumerus -55.7365 -18.0018 95.7868
lradius 87.9618
lwrist 22.0212
lhand -8.49068 19.6673
lfingers 7.12502
lthumb 17.4367 48.9053
rfemur -10.9506 -1.67178 26.1371
rtibia 31.3621
rfoot -21.3348 -1.82422
rtoes 2.69312
lfemur -11.4693 2.60359 -15.5732
ltibia 30.1356
lfoot -19.0642 -4.51178
ltoes -7.55635
5
root -12.5819 17.5541 8.54476 3.90094 -2.30827 -3.65399
lowerback 1.92081 0.686548 2.59802
upperback 4.69086 0.810965 3.02315
thorax 3.74969 0.434211 1.6741
lowerneck -7.90412 0.880189 -9.15442
upperneck 44.6955 2.84012 2.49646
head 17.8051 -0.0292692 3.3098
rclavicle -1.63003e-014 -2.62396e-014
rhumerus -57.2729 18.6702 -86.6206
rradius 95.5875
rwrist -26.7849
rhand -12.8546 13.3077
rfingers 7.12502
rthumb 13.2334 -16.2523
lclavicle -1.63003e-014 -2.62396e-014
lhumerus -55.7233 -18.1104 95.8977
lradius 87.8468
lwrist 22.0653
lhand -8.69606 19.3863
lfingers 7.12502
lthumb 17.239 48.6416
rfemur -10.9127 -1.68222 26.2213
rtibia 31.3114
rfoot -21.2073 -1.85739
rtoes 2.87499
lfemur -11.4633 2.58042 -15.4554
ltibia 30.2222
lfoot -19.1542 -4.72903
ltoes -6.44457
6
root -12.5846 17.5467 8.54448 3.86331 -2.17121 -3.76217
lowerback 1.87711 0.620154 2.6368
upperback 4.71002 0.718069 3.06848
thorax 3.79549 0.388587 1.69902
lowerneck -8.10072 0.827895 -9.35801
upperneck 44.698 2.7491 2.70054
head 17.8574 -0.0773118 3.43339
rclavicle -6.16232e-015 -9.54166e-015
rhumerus -57.1697 18.9119 -86.7503
rradius 95.7421
rwrist -26.5882
rhand -12.4107 13.6683
rfingers 7.12502
rthumb 13.6612 -15.8633
lclavicle -6.16232e-015 -9.54166e-015
lhumerus -55.6509 -18.0206 95.8887
lradius 87.7968
lwrist 22.0424
lhand -8.29564 19.3234
lfingers 7.12502
lthumb 17.6244 48.5446
rfemur -10.8544 -1.67498 26.3741
rtibia 31.319
rfoot -21.2722 -2.05326
rtoes 1.90865
lfemur -11.4604 2.43529 -15.2989
ltibia 30.2615
lfoot -19.1531 -4.90358
ltoes -5.49895
7
root -12.587 17.5435 8.54452 3.8717 -2.0952 -3.79747
lowerback 1.81959 0.59789 2.60994
upperback 4.70623 0.685961 3.07119
thorax 3.82395 0.371706 1.71715
lowerneck -8.21217 0.756347 -9.48112
upperneck 44.6023 2.57119 2.95262
head 17.8328 -0.134972 3.54517
rclavicle 6.36111e-015 -1.59028e-015
rhumerus -56.957 19.0281 -86.7864
rradius 95.6842
rwrist -26.362
rhand -11.2453 13.4649
rfingers 7.12502
rthumb 14.7842 -15.9878
lclavicle 6.36111e-015 -1.59028e-015
lhumerus -55.54 -17.9241 95.8183
lradius 87.6199
lwrist 22.1462
lhand -7.71371 18.8133
lfingers 7.12502
lthumb 18.1843 47.9833
rfemur -10.8907 -1.64928 26.4452
rtibia 31.389
rfoot -21.3467 -2.26612
rtoes 0.748177
lfemur -11.4575 2.30446 -15.2332
ltibia 30.2307
lfoot -19.1633 -4.97094
ltoes -5.27138
8
root -12.5903 17.5397 8.54324 3.83014 -2.19504 -3.80408
lowerback 1.95614 0.649931 2.53325
upperback 4.63307 0.765182 3.07135
thorax 3.66834 0.407723 1.75798
lowerneck -8.26259 0.682777 -9.59489
upperneck 44.5797 2.38236 3.20944
head 17.8395 -0.197568 3.65798
rclavicle 6.36111e-015 1.11319e-014
rhumerus -56.9825 18.8759 -86.7486
rradius 95.7921
rwrist -25.756
rhand -9.67012 12.7295
rfingers 7.12502
rthumb 16.3013 -16.6053
lclavicle 6.36111e-015 1.11319e-014
lhumerus -55.6133 -17.8155 95.8141
lradius 87.4649
lwrist 22.2266
lhand -7.64751 17.9859
lfingers 7.12502
lthumb 18.248 47.15
rfemur -10.9459 -1.46414 26.4761
rtibia 31.5588
rfoot -21.4044 -2.41395
rtoes 0.490657
lfemur -11.2952 2.2942 -15.1846
ltibia 30.0716
lfoot -19.2834 -5.0087
ltoes -4.86077
9
root -12.5904 17.5338 8.54548 3.79562 -2.22809 -3.62542
lowerback 2.09963 0.658257 2.30174
upperback 4.49075 0.790253 3.03424
thorax 3.43531 0.412117 1.84469
lowerneck -8.11844 0.646785 -9.65053
upperneck 44.4506 2.28381 3.28445
head 17.7286 -0.230196 3.67799
rclavicle 1.88845e-014 2.78299e-014
rhumerus -57.1391 18.7589 -86.7459
rradius 95.9841
rwrist -25.164
rhand -9.88042 13.5064
rfingers 7.12502
rthumb 16.0988 -15.845
lclavicle 1.88845e-014 2.78299e-014
lhumerus -55.7826 -17.6622 95.8545
lradius 87.3072
lwrist 22.3309
lhand -7.7542 17.4516
lfingers 7.12502
lthumb 18.1453 46.6252
rfemur -11.0246 -1.63626 26.2596
rtibia 31.814
rfoot -21.5769 -2.31652
rtoes 0.159537
lfemur -11.1778 2.31954 -15.3515
ltibia 29.7865
lfoot -19.1776 -5.40426
ltoes -2.3036
10
root -12.5879 17.5338 8.55191 3.85473 -2.11311 -3.00944
lowerback 2.00793 0.613691 1.67715
upperback 4.39672 0.736416 2.87496
thorax 3.38222 0.367728 2.02909
lowerneck -8.00158 0.578775 -9.57305
upperneck 44.1555 2.19739 3.12387
head 17.5338 -0.258534 3.55827
rclavicle 5.96354e-015 2.70347e-014
rhumerus -56.9622 18.9798 -86.84
rradius 95.7967
rwrist -25.2416
rhand -9.98348 13.382
rfingers 7.12502
rthumb 15.9996 -15.9773
lclavicle 5.96354e-015 2.70347e-014
lhumerus -55.7303 -17.5067 95.8246
lradius 87.0562
lwrist 22.4707
lhand -7.86062 17.0987
lfingers 7.12502
lthumb 18.0429 46.2819
rfemur -11.2195 -2.16734 25.5163
rtibia 32.0867
rfoot -21.8098 -1.9198
rtoes 0.0427422
lfemur -11.2353 2.26157 -16.0387
ltibia 29.4897
lfoot -18.9206 -5.91513
ltoes 0.648629
